<svg xmlns="http://www.w3.org/2000/svg" xmlns:svg="http://www.w3.org/2000/svg" id="svg2" width="38" height="38" version="1.1" viewBox="0 0 38 38"><metadata id="metadata8"/><path style="color:#000;font-style:normal;font-variant:normal;font-weight:400;font-stretch:normal;font-size:medium;line-height:normal;font-family:sans-serif;font-variant-ligatures:normal;font-variant-position:normal;font-variant-caps:normal;font-variant-numeric:normal;font-variant-alternates:normal;font-feature-settings:normal;text-indent:0;text-align:start;text-decoration:none;text-decoration-line:none;text-decoration-style:solid;text-decoration-color:#000;letter-spacing:normal;word-spacing:normal;text-transform:none;writing-mode:lr-tb;direction:ltr;text-orientation:mixed;dominant-baseline:auto;baseline-shift:baseline;text-anchor:start;white-space:normal;shape-padding:0;clip-rule:nonzero;display:inline;overflow:visible;visibility:visible;opacity:1;isolation:auto;mix-blend-mode:normal;color-interpolation:sRGB;color-interpolation-filters:linearRGB;solid-color:#000;solid-opacity:1;vector-effect:none;fill:#919191;fill-opacity:1;fill-rule:nonzero;stroke:none;stroke-width:3.5;stroke-linecap:round;stroke-linejoin:bevel;stroke-miterlimit:4;stroke-dasharray:none;stroke-dashoffset:0;stroke-opacity:1;color-rendering:auto;image-rendering:auto;shape-rendering:auto;text-rendering:auto;enable-background:accumulate" id="path819" d="M 19,0 C 8.5272756,0 0,8.5272748 0,19 0,29.472725 8.5272756,38 19,38 29.472724,38 38,29.472725 38,19 38,8.5272748 29.472724,0 19,0 Z m 0,3.5 c 8.581184,0 15.5,6.918815 15.5,15.5 0,8.581185 -6.918816,15.5 -15.5,15.5 C 10.418816,34.5 3.5,27.581185 3.5,19 3.5,10.418815 10.418816,3.5 19,3.5 Z"/><circle style="opacity:1;fill:#919191;fill-opacity:1;stroke:#bbb;stroke-width:0;stroke-linecap:round;stroke-linejoin:round;stroke-miterlimit:4;stroke-dasharray:none;stroke-opacity:1" id="path831" cx="19" cy="27.772" r="4"/><path style="fill:none;stroke:#919191;stroke-width:6.30000019;stroke-linecap:butt;stroke-linejoin:miter;stroke-miterlimit:4;stroke-dasharray:none;stroke-opacity:1" id="path817" d="m 12.290687,12.178281 c 0,0 2.914851,-4.0593089 6.314481,-4.0593088 3.382758,0 5.57748,1.9006158 5.750689,4.2848258 0.142504,1.961563 -3.177558,2.475312 -4.172068,4.172069 -0.770156,1.313982 -1.240343,2.139595 -1.240344,4.397584 l -1e-6,1.691379"/></svg>