<svg xmlns="http://www.w3.org/2000/svg" xmlns:svg="http://www.w3.org/2000/svg" id="svg2" width="19" height="19" version="1.1"><metadata id="metadata7"/><g id="layer1" transform="translate(0,-1033.3622)"><text xml:space="preserve" style="font-size:144px;font-style:normal;font-weight:400;text-align:start;line-height:125%;letter-spacing:0;word-spacing:0;text-anchor:start;fill:#000;fill-opacity:1;stroke:none;font-family:Sans" id="text3755" x="-2.725" y="1012.986"><tspan id="tspan3757" x="-2.725" y="1012.986" style="font-size:20px;font-style:normal;font-variant:normal;font-weight:400;font-stretch:normal;text-align:start;text-anchor:start;font-family:Times New Roman;-inkscape-font-specification:Times New Roman">https:</tspan></text><path style="font-size:medium;font-style:normal;font-variant:normal;font-weight:400;font-stretch:normal;text-indent:0;text-align:start;text-decoration:none;line-height:normal;letter-spacing:normal;word-spacing:normal;text-transform:none;direction:ltr;block-progression:tb;writing-mode:lr-tb;text-anchor:start;baseline-shift:baseline;color:#000;fill:#909090;fill-opacity:1;stroke:none;stroke-width:3;marker:none;visibility:visible;display:inline;overflow:visible;enable-background:accumulate;font-family:Sans;-inkscape-font-specification:Sans" id="path2985" d="m 10.962994,1035.9566 c -2.3352318,-2.4003 -6.1815138,-2.4678 -8.5639818,-0.1499 -2.38241496,2.3178 -2.40960696,6.1539 -0.07438,8.5542 2.083652,2.1417 5.370014,2.4455 7.7464018,0.8391 l 6.980535,7.1749 1.507034,-1.4662 -6.980536,-7.1749 c 1.672964,-2.3332 1.468573,-5.6355 -0.615078,-7.7772 z m -1.0484118,1.02 c 1.7903258,1.8402 1.7629918,4.7471 -0.04629,6.5074 -1.809231,1.7602 -4.704915,1.6971 -6.495242,-0.1431 -1.790325,-1.8402 -1.763281,-4.7256 0.04595,-6.4858 1.809283,-1.7603 4.705256,-1.7186 6.495583,0.1215 z"/></g></svg>