<svg xmlns="http://www.w3.org/2000/svg" xmlns:svg="http://www.w3.org/2000/svg" id="svg3798" width="22" height="19" version="1.1"><metadata id="metadata3803"/><g id="layer1" transform="translate(0,-1033.3622)"><path style="fill:#000;fill-opacity:1;fill-rule:nonzero;stroke:none" id="rect3955-1" d="M 4.90625 3.90625 C 4.532132 4.616128 4.34375 5.4298287 4.34375 6.28125 C 4.34375 6.4959002 4.3489496 6.6983985 4.375 6.90625 L 11.3125 6.90625 L 11.3125 3.90625 L 4.90625 3.90625 z M 4.8125 8.40625 C 5.5380675 9.967138 7.0142586 11.113996 8.8125 11.40625 L 10.625 11.40625 C 10.865212 11.36721 11.084183 11.318686 11.3125 11.25 L 11.3125 8.40625 L 4.8125 8.40625 z" transform="translate(0,1033.3622)"/><path style="fill:#000;fill-opacity:1;fill-rule:nonzero;stroke:none" id="rect3955" d="M 1 5 L 1 7 L 4.46875 7 C 4.4426996 6.7921495 4.40625 6.589649 4.40625 6.375 C 4.40625 5.90116 4.5025603 5.4363512 4.625 5 L 1 5 z M 1 8 L 1 10 L 5.9375 10 C 5.3819309 9.4446571 4.9452692 8.7500694 4.6875 8 L 1 8 z M 1 11 L 1 13 L 11 13 L 11 11.4375 C 10.618102 11.520482 10.220298 11.5625 9.8125 11.5625 C 8.9439902 11.5625 8.132929 11.352839 7.40625 11 L 1 11 z" transform="translate(0,1033.3622)"/><path style="font-size:medium;font-style:normal;font-variant:normal;font-weight:400;font-stretch:normal;text-indent:0;text-align:start;text-decoration:none;line-height:normal;letter-spacing:normal;word-spacing:normal;text-transform:none;direction:ltr;block-progression:tb;writing-mode:lr-tb;text-anchor:start;baseline-shift:baseline;color:#000;fill:#909090;fill-opacity:1;stroke:none;stroke-width:3;marker:none;visibility:visible;display:inline;overflow:visible;enable-background:accumulate;font-family:Sans;-inkscape-font-specification:Sans" id="path2985" d="m 14.012442,1035.5221 c -2.335232,-2.4003 -6.181514,-2.4678 -8.563982,-0.1499 -2.382415,2.3178 -2.409607,6.1539 -0.07438,8.5542 2.083652,2.1417 5.370014,2.4455 7.746402,0.8391 l 6.980535,7.1749 1.507034,-1.4662 -6.980536,-7.1749 c 1.672964,-2.3332 1.468573,-5.6355 -0.615078,-7.7772 z m -1.048412,1.02 c 1.790326,1.8402 1.762992,4.7471 -0.04629,6.5074 -1.809231,1.7602 -4.704915,1.6971 -6.495242,-0.1431 -1.790325,-1.8402 -1.763281,-4.7256 0.04595,-6.4858 1.809283,-1.7603 4.705256,-1.7186 6.495583,0.1215 z"/></g></svg>