<svg xmlns="http://www.w3.org/2000/svg" xmlns:svg="http://www.w3.org/2000/svg" id="svg2" width="38" height="38" version="1.1" viewBox="0 0 38 38"><metadata id="metadata8"/><style>@keyframes blink{0%{stroke:#919191}50%{stroke:#fc2626}}</style><path id="path3753" style="fill:none;stroke:#fc2626;stroke-width:5;stroke-linecap:round;stroke-linejoin:round;stroke-miterlimit:4;stroke-opacity:1;stroke-dasharray:none" d="m 6.5395498,10.17429 c 0.7408653,-1.9520786 2.3402,-3.5432761 3.9775962,-4.8388171 1.242812,-0.983338 2.744201,-1.660303 4.268645,-2.093438 0.979278,-0.27824 2.022824,-0.2462293 3.039548,-0.297934 1.219195,-0.062001 2.453007,-0.18146 3.662283,-0.014333 1.368105,0.1890774 2.759629,0.4995468 3.983586,1.1393823 1.564395,0.8178027 3.037124,1.9416322 4.101829,3.349658 0.928071,1.2273323 1.485164,2.5584127 1.835282,4.2356441"/><path style="fill:none;stroke:#fc2626;stroke-width:5;stroke-linecap:round;stroke-linejoin:round;stroke-miterlimit:4;stroke-opacity:1;stroke-dasharray:none" id="path3761" d="m 28.226191,30.535847 c -0.705549,-0.276298 -2.334601,-2.105253 -2.9331,-3.506685 -0.492279,-1.152708 -0.452262,-2.484391 -0.415298,-3.737271 0.0444,-1.504792 0.705511,-2.947131 0.76257,-4.451496 0.03729,-0.983271 0.01802,-2.000111 -0.276597,-2.938947 -0.28837,-0.918928 -0.808138,-1.772901 -1.421391,-2.515536 -0.348954,-0.422576 -0.798177,-0.758586 -1.2526,-1.064918 -0.711789,-0.479826 -1.441775,-1.018308 -2.282216,-1.193051 -1.050788,-0.218477 -2.178824,-0.06167 -3.211511,0.230645 -1.154928,0.326914 -2.286754,0.87691 -3.194005,1.662802 -1.275306,1.104713 -1.992225,2.724079 -2.953811,4.110495 -0.566475,0.816745 -0.941198,1.789962 -1.658273,2.478272 -1.1594225,1.112912 -2.9893077,2.51719 -4.1134185,2.515015"/><path style="fill:none;stroke:#fc2626;stroke-width:5;stroke-linecap:round;stroke-linejoin:round;stroke-miterlimit:4;stroke-opacity:1;stroke-dasharray:none" id="path3764" d="m 18.150896,20.381584 c -0.879767,2.887668 -1.890819,4.740429 -3.506955,6.659271 -1.522926,1.808173 -3.627915,3.352908 -5.62199,4.323469"/><path style="fill:none;stroke:#fc2626;stroke-width:5;stroke-linecap:round;stroke-linejoin:round;stroke-miterlimit:4;stroke-opacity:1;stroke-dasharray:none" id="path3768" d="m 17.696557,34.987707 c 0.591743,-0.876117 1.883594,-1.823128 2.139697,-2.959374 0.360415,-1.599032 0.578087,2.114498 1.043851,3.123918"/><path style="fill:none;stroke:#fc2626;stroke-width:5;stroke-linecap:round;stroke-linejoin:round;stroke-miterlimit:4;stroke-opacity:1;stroke-dasharray:none" id="path3774" d="M 32.860324,19.731113 32.504352,22.69683"/></svg>